<svg width="512.000000" height="512.000000" viewBox="0 0 512 512" fill="none" xmlns="http://www.w3.org/2000/svg" xmlns:xlink="http://www.w3.org/1999/xlink">
	<desc>
			Created with Pixso.
	</desc>
	<defs>
		<clipPath id="clip2_1">
			<rect id="file" width="512.000000" height="512.000000" fill="white" fill-opacity="0"/>
		</clipPath>
	</defs>
	<rect id="file" width="512.000000" height="512.000000" fill="#FFFFFF" fill-opacity="1.000000"/>
	<g clip-path="url(#clip2_1)">
		<path id="减去顶层" d="M277.445 52L191 52C141.294 52 101 92.2944 101 142L101 247C101 263.569 114.431 277 131 277L388 277C404.569 277 418 263.569 418 247L418 190.822L277.445 52L277.445 52Z" clip-rule="evenodd" fill="#069EFA" fill-opacity="0.494253" fill-rule="evenodd"/>
		<path id="交集" d="M418.481 192.7L418.481 192.625L277.901 52.4424L277.901 102.7C277.901 152.406 318.195 192.7 367.901 192.7L418.481 192.7Z" clip-rule="evenodd" fill="#069EFA" fill-opacity="1.000000" fill-rule="evenodd"/>
		<path id="DOC" d="M306.92 373.28C306.92 407.84 287.48 429 259.25 429C231.02 429 211.58 407.84 211.58 373.28C211.58 338.58 231.02 318.43 259.25 318.43C287.48 318.43 306.92 338.72 306.92 373.28ZM405.25 413.32C396.5 423.55 385.11 429 371.29 429C344.36 429 322.46 409.7 322.46 374.16C322.46 339 345.07 318.43 372 318.43C385.53 318.43 396.32 324.9 403.25 332.11L392.18 345.64C386.69 340.44 380.5 336.71 372.42 336.71C356.32 336.71 344.22 350.53 344.22 373.42C344.22 396.62 355.16 410.58 372 410.58C381.21 410.58 388.27 406.25 394.04 400.07L405.25 413.32ZM144.48 427L114.11 427L114.11 320.3L143.32 320.3C175.88 320.3 196.02 337.28 196.02 373.28C196.02 409.14 175.88 427 144.48 427ZM233.34 373.28C233.34 396.02 243.4 410.58 259.25 410.58C275.11 410.58 285.16 396.02 285.16 373.28C285.16 350.39 275.11 336.71 259.25 336.71C243.4 336.71 233.34 350.39 233.34 373.28ZM135.41 337.42L135.41 409.87L142.02 409.87C161.92 409.87 174.3 399.19 174.3 373.28C174.3 347.23 161.92 337.42 142.02 337.42L135.41 337.42Z" fill="#069EFA" fill-opacity="1.000000" fill-rule="evenodd"/>
	</g>
</svg>
